<svg width="91" height="35" fill="none" xmlns="http://www.w3.org/2000/svg"><g clip-path="url(#a)" fill="#394149"><path d="M21.6 0a13.4 13.4 0 0 0-9.474 3.925l-8.201 8.2A13.4 13.4 0 0 0 0 21.602C0 29 6 35 13.4 35a13.4 13.4 0 0 0 9.474-3.925l5.673-5.672L45.075 8.874a6.4 6.4 0 0 1 10.611 2.54l5.217-5.216A13.39 13.39 0 0 0 49.6 0a13.4 13.4 0 0 0-9.474 3.925l-22.201 22.2a6.4 6.4 0 1 1-9.05-9.05l8.2-8.2a6.4 6.4 0 0 1 10.611 2.54l5.217-5.216A13.39 13.39 0 0 0 21.6 0Z"/><path d="M45.924 26.126a6.4 6.4 0 0 1-10.61-2.54l-5.216 5.216A13.39 13.39 0 0 0 41.399 35a13.4 13.4 0 0 0 9.475-3.925l22.201-22.2a6.4 6.4 0 1 1 9.05 9.05l-8.2 8.2a6.4 6.4 0 0 1-10.611-2.54l-5.217 5.217A13.39 13.39 0 0 0 69.4 35a13.4 13.4 0 0 0 9.475-3.925l8.201-8.2A13.4 13.4 0 0 0 91 13.398C91 6 85 0 77.6 0a13.4 13.4 0 0 0-9.475 3.925l-22.2 22.2Z"/></g><defs><clipPath id="a"><path fill="#fff" d="M0 0h91v35H0z"/></clipPath></defs></svg>